<?xml version="1.0" encoding="UTF-8"?>
<svg id="Layer_1" data-name="Layer 1" xmlns="http://www.w3.org/2000/svg" viewBox="0 0 744 744">
  <defs>
    <style>
      .cls-1 {
        fill: #ce8024;
      }

      .cls-1, .cls-2, .cls-3 {
        stroke-width: 0px;
      }

      .cls-2 {
        fill: #fff;
      }

      .cls-3 {
        fill: #e59424;
      }
    </style>
  </defs>
  <rect class="cls-2" x="101.27" y="96.76" width="545" height="545" rx="90.87" ry="90.87"/>
  <g id="dk6Fha">
    <g>
      <path class="cls-3" d="M373.69,318.81c-3.23.15-6.46.42-9.69.42-47.16,0-94.32,0-141.47-.06-12.61-.02-17.38-3.1-20.03-12.51-2.64-9.36.86-16.9,10.84-22.89,42.52-25.56,85.07-51.09,127.61-76.64,7.27-4.36,14.48-8.82,21.8-13.09,2.95-1.72,5.69-4.17,9.52-3.74,1.99,2.64,1.44,5.72,1.45,8.68.01,39.95,0,79.9,0,119.85Z"/>
      <path class="cls-1" d="M373.69,318.81c0-39.95.02-79.9,0-119.85,0-2.96.54-6.04-1.45-8.68,4.35-1.38,7.75.94,11.16,2.99,50.7,30.44,101.39,60.9,152.08,91.36,8.63,5.19,12.07,13.15,9.62,22.13-2.11,7.73-9.03,12.45-18.69,12.46-49.18.04-98.36.03-147.54.01-1.73,0-3.46-.28-5.2-.43Z"/>
      <path class="cls-1" d="M373.65,505.26c19.96-.14,39.92-.34,59.87-.4,24.72-.07,49.43-.08,74.15,0,10.95.04,17.6,6.9,17.66,17.81.05,10.99-6.51,17.94-17.49,17.94-90.38.04-180.76.01-271.14-.04-1.71,0-3.42-.45-5.13-.69,1.5-.9,3-1.3,4.88-1.29,44.01.26,88.02.37,132.03.61,3.83.02,4.84-1.46,5.38-5.2,1.37-9.65.46-19.18-.21-28.76Z"/>
      <path class="cls-3" d="M373.65,505.26c.68,9.58,1.59,19.11.21,28.76-.53,3.74-1.55,5.22-5.38,5.2-44.01-.24-88.02-.35-132.03-.61-1.88-.01-3.37.38-4.88,1.29-9.79-2.04-14.69-9.08-13.69-19.65.86-9.08,7.41-15.24,17.19-15.3,28.47-.18,56.95-.16,85.42-.1,17.72.04,35.44.28,53.15.43Z"/>
      <path class="cls-3" d="M266.02,411.71c0-21.21.26-42.43-.19-63.64-.13-5.93,2.23-7.43,8.34-7.04,8.77.55,20.02-3.06,25.69,1.36,5.85,4.56,1.82,14.6,1.87,22.21.22,37.44-.05,74.87.25,112.31.05,6.09-1.63,8.62-8.96,8.01-6.22-.52-12.56-.37-18.81-.03-6.31.34-8.4-1.64-8.32-7.29.34-21.96.14-43.92.13-65.89Z"/>
      <path class="cls-1" d="M374.33,412.9c0-21.71.16-43.42-.1-65.13-.06-5.24,1.55-7.11,6.78-6.78,5.96.38,11.99.43,17.95.02,5.47-.38,6.74,1.96,6.71,6.96-.27,43.41-.44,86.83-.4,130.25,0,5.44-2.02,6.91-7.04,6.6-5.72-.34-11.49-.39-17.2.02-5.31.38-6.85-1.62-6.8-6.81.24-21.71.1-43.42.11-65.13Z"/>
      <path class="cls-1" d="M485.11,465.11c-5.92-7.27-11.75-14.61-17.83-21.75-1.47-1.72-.98-3.16,2.37-5.71,3.82-2.9,7.58-5.94,11.18-9.1,3.3-2.9,4.73-2.76,6.08-1.07,11.67,14.67,23.41,29.29,35.27,43.8,1.49,1.82.63,3.34-2.58,5.78-3.65,2.78-7.26,5.7-10.7,8.73-3.21,2.82-4.71,2.93-6.09,1.17-5.77-7.39-11.78-14.58-17.7-21.85Z"/>
      <path class="cls-1" d="M471.73,341.24c-25.96,0-47,32.24-47,72s21.04,72,47,72,47-32.24,47-72-21.04-72-47-72ZM472.73,456.24c-11.6,0-21-18.36-21-41s9.4-41,21-41,21,18.36,21,41-9.4,41-21,41Z"/>
      <path class="cls-3" d="M254.04,473.29c-8.96-2.89-16-6.92-21.12-12.1-5.12-5.17-7.85-10.95-8.19-17.34h18.94c.85,6.14,4.69,11.53,11.52,16.16,6.82,4.64,16.81,6.95,29.95,6.95,12.12,0,21.71-2.19,28.8-6.59,7.08-4.39,10.62-9.96,10.62-16.7,0-5.42-1.96-9.78-5.89-13.09-3.93-3.31-8.79-5.78-14.59-7.4-5.8-1.63-13.82-3.4-24.06-5.33-11.95-2.28-21.42-4.51-28.41-6.68-7-2.17-12.97-5.54-17.92-10.11-4.95-4.57-7.42-10.77-7.42-18.6,0-6.5,2.39-12.31,7.17-17.43,4.78-5.12,11.52-9.12,20.22-12.01,8.7-2.89,18.69-4.33,29.95-4.33,16.55,0,29.9,2.86,40.06,8.58,10.15,5.72,16,13.09,17.53,22.12h-19.45c-1.2-5.17-5.21-9.78-12.03-13.81-6.83-4.03-16.04-6.05-27.64-6.05-10.75,0-19.71,2.02-26.88,6.05-7.17,4.03-10.75,9.54-10.75,16.52,0,5.3,1.96,9.57,5.89,12.82,3.92,3.25,8.83,5.72,14.72,7.4,5.89,1.69,13.86,3.49,23.93,5.42,11.6,2.29,20.99,4.55,28.16,6.77,7.17,2.23,13.22,5.63,18.17,10.2,4.95,4.58,7.42,10.72,7.42,18.42,0,5.9-2.22,11.5-6.65,16.79-4.44,5.3-11.01,9.57-19.71,12.82-8.7,3.25-19.11,4.87-31.23,4.87s-22.14-1.44-31.1-4.33Z"/>
    </g>
  </g>
</svg>